<mxfile host="app.diagrams.net" modified="2021-07-03T07:48:35.693Z" agent="5.0 (Windows NT 10.0; Win64; x64) AppleWebKit/537.36 (KHTML, like Gecko) Chrome/91.0.4472.114 Safari/537.36" etag="4Twy3R7-OeAptWIqME3e" version="14.8.4" type="github">
  <diagram id="R2lEEEUBdFMjLlhIrx00" name="Page-1">
    <mxGraphModel dx="2142" dy="1683" grid="1" gridSize="10" guides="1" tooltips="1" connect="1" arrows="1" fold="1" page="1" pageScale="1" pageWidth="850" pageHeight="1100" math="0" shadow="0" extFonts="Permanent Marker^https://fonts.googleapis.com/css?family=Permanent+Marker">
      <root>
        <mxCell id="0" />
        <mxCell id="1" parent="0" />
        <mxCell id="eFKBSbeL_RVfUrZuhsc8-1" value="USER" style="rounded=1;whiteSpace=wrap;html=1;fillColor=#fff2cc;strokeColor=#d6b656;" vertex="1" parent="1">
          <mxGeometry x="360" y="170" width="120" height="60" as="geometry" />
        </mxCell>
        <mxCell id="eFKBSbeL_RVfUrZuhsc8-45" value="" style="edgeStyle=orthogonalEdgeStyle;rounded=0;orthogonalLoop=1;jettySize=auto;html=1;shadow=0;" edge="1" parent="1" source="eFKBSbeL_RVfUrZuhsc8-3" target="eFKBSbeL_RVfUrZuhsc8-44">
          <mxGeometry relative="1" as="geometry" />
        </mxCell>
        <mxCell id="eFKBSbeL_RVfUrZuhsc8-47" value="" style="edgeStyle=orthogonalEdgeStyle;rounded=0;orthogonalLoop=1;jettySize=auto;html=1;shadow=0;" edge="1" parent="1" source="eFKBSbeL_RVfUrZuhsc8-3" target="eFKBSbeL_RVfUrZuhsc8-46">
          <mxGeometry relative="1" as="geometry">
            <Array as="points">
              <mxPoint x="200" y="490" />
              <mxPoint x="200" y="490" />
            </Array>
          </mxGeometry>
        </mxCell>
        <mxCell id="eFKBSbeL_RVfUrZuhsc8-49" value="" style="edgeStyle=orthogonalEdgeStyle;rounded=0;orthogonalLoop=1;jettySize=auto;html=1;shadow=0;" edge="1" parent="1" source="eFKBSbeL_RVfUrZuhsc8-3" target="eFKBSbeL_RVfUrZuhsc8-48">
          <mxGeometry relative="1" as="geometry">
            <Array as="points">
              <mxPoint x="330" y="430" />
            </Array>
          </mxGeometry>
        </mxCell>
        <mxCell id="eFKBSbeL_RVfUrZuhsc8-3" value="Question&lt;span style=&quot;white-space: pre&quot;&gt;	&lt;/span&gt;" style="rounded=1;whiteSpace=wrap;html=1;fillColor=#fff2cc;strokeColor=none;" vertex="1" parent="1">
          <mxGeometry x="150" y="390" width="120" height="60" as="geometry" />
        </mxCell>
        <mxCell id="eFKBSbeL_RVfUrZuhsc8-17" value="ques_id" style="ellipse;whiteSpace=wrap;html=1;dashed=1;shadow=1;" vertex="1" parent="1">
          <mxGeometry x="160" y="170" width="80" height="50" as="geometry" />
        </mxCell>
        <mxCell id="eFKBSbeL_RVfUrZuhsc8-35" style="edgeStyle=orthogonalEdgeStyle;rounded=0;orthogonalLoop=1;jettySize=auto;html=1;entryX=0.167;entryY=-0.043;entryDx=0;entryDy=0;entryPerimeter=0;shadow=0;" edge="1" parent="1" source="eFKBSbeL_RVfUrZuhsc8-18" target="eFKBSbeL_RVfUrZuhsc8-1">
          <mxGeometry relative="1" as="geometry">
            <Array as="points">
              <mxPoint x="330" y="125" />
              <mxPoint x="370" y="125" />
            </Array>
          </mxGeometry>
        </mxCell>
        <mxCell id="eFKBSbeL_RVfUrZuhsc8-18" value="user_name" style="ellipse;whiteSpace=wrap;html=1;" vertex="1" parent="1">
          <mxGeometry x="290" y="40" width="80" height="50" as="geometry" />
        </mxCell>
        <mxCell id="eFKBSbeL_RVfUrZuhsc8-26" value="" style="edgeStyle=orthogonalEdgeStyle;rounded=0;orthogonalLoop=1;jettySize=auto;html=1;" edge="1" parent="1" source="eFKBSbeL_RVfUrZuhsc8-19" target="eFKBSbeL_RVfUrZuhsc8-1">
          <mxGeometry relative="1" as="geometry" />
        </mxCell>
        <mxCell id="eFKBSbeL_RVfUrZuhsc8-70" value="" style="edgeStyle=orthogonalEdgeStyle;rounded=0;orthogonalLoop=1;jettySize=auto;html=1;shadow=0;" edge="1" parent="1" source="eFKBSbeL_RVfUrZuhsc8-19" target="eFKBSbeL_RVfUrZuhsc8-69">
          <mxGeometry relative="1" as="geometry">
            <Array as="points">
              <mxPoint x="425" y="-75" />
            </Array>
          </mxGeometry>
        </mxCell>
        <mxCell id="eFKBSbeL_RVfUrZuhsc8-75" style="edgeStyle=orthogonalEdgeStyle;rounded=0;orthogonalLoop=1;jettySize=auto;html=1;shadow=0;" edge="1" parent="1" source="eFKBSbeL_RVfUrZuhsc8-19" target="eFKBSbeL_RVfUrZuhsc8-72">
          <mxGeometry relative="1" as="geometry">
            <mxPoint x="410" y="-90" as="targetPoint" />
          </mxGeometry>
        </mxCell>
        <mxCell id="eFKBSbeL_RVfUrZuhsc8-19" value="Name" style="ellipse;whiteSpace=wrap;html=1;" vertex="1" parent="1">
          <mxGeometry x="385" y="70" width="80" height="50" as="geometry" />
        </mxCell>
        <mxCell id="eFKBSbeL_RVfUrZuhsc8-27" style="edgeStyle=orthogonalEdgeStyle;rounded=0;orthogonalLoop=1;jettySize=auto;html=1;exitX=0;exitY=0;exitDx=0;exitDy=0;entryX=1;entryY=0.25;entryDx=0;entryDy=0;" edge="1" parent="1" source="eFKBSbeL_RVfUrZuhsc8-20" target="eFKBSbeL_RVfUrZuhsc8-1">
          <mxGeometry relative="1" as="geometry">
            <mxPoint x="480" y="180" as="targetPoint" />
          </mxGeometry>
        </mxCell>
        <mxCell id="eFKBSbeL_RVfUrZuhsc8-20" value="ans_id" style="ellipse;whiteSpace=wrap;html=1;dashed=1;shadow=1;" vertex="1" parent="1">
          <mxGeometry x="640" y="60" width="110" height="60" as="geometry" />
        </mxCell>
        <mxCell id="eFKBSbeL_RVfUrZuhsc8-37" value="" style="edgeStyle=orthogonalEdgeStyle;rounded=0;orthogonalLoop=1;jettySize=auto;html=1;shadow=0;shape=link;" edge="1" parent="1" source="eFKBSbeL_RVfUrZuhsc8-31" target="eFKBSbeL_RVfUrZuhsc8-3">
          <mxGeometry relative="1" as="geometry" />
        </mxCell>
        <mxCell id="eFKBSbeL_RVfUrZuhsc8-31" value="asks" style="rhombus;whiteSpace=wrap;html=1;shadow=0;fillColor=#d5e8d4;strokeColor=#82b366;" vertex="1" parent="1">
          <mxGeometry x="170" y="260" width="80" height="70" as="geometry" />
        </mxCell>
        <mxCell id="eFKBSbeL_RVfUrZuhsc8-32" value="answers" style="rhombus;whiteSpace=wrap;html=1;shadow=0;fillColor=#d5e8d4;strokeColor=#82b366;" vertex="1" parent="1">
          <mxGeometry x="655" y="255" width="80" height="80" as="geometry" />
        </mxCell>
        <mxCell id="eFKBSbeL_RVfUrZuhsc8-34" value="" style="endArrow=none;html=1;shadow=0;entryX=0;entryY=0.5;entryDx=0;entryDy=0;exitX=1;exitY=0.5;exitDx=0;exitDy=0;" edge="1" parent="1" source="eFKBSbeL_RVfUrZuhsc8-17" target="eFKBSbeL_RVfUrZuhsc8-1">
          <mxGeometry width="50" height="50" relative="1" as="geometry">
            <mxPoint x="290" y="200" as="sourcePoint" />
            <mxPoint x="340" y="150" as="targetPoint" />
          </mxGeometry>
        </mxCell>
        <mxCell id="eFKBSbeL_RVfUrZuhsc8-38" value="" style="endArrow=none;html=1;shadow=0;exitX=0;exitY=0.75;exitDx=0;exitDy=0;" edge="1" parent="1" source="eFKBSbeL_RVfUrZuhsc8-1" target="eFKBSbeL_RVfUrZuhsc8-31">
          <mxGeometry width="50" height="50" relative="1" as="geometry">
            <mxPoint x="370" y="320" as="sourcePoint" />
            <mxPoint x="420" y="270" as="targetPoint" />
            <Array as="points" />
          </mxGeometry>
        </mxCell>
        <mxCell id="eFKBSbeL_RVfUrZuhsc8-39" value="" style="edgeStyle=orthogonalEdgeStyle;rounded=0;orthogonalLoop=1;jettySize=auto;html=1;shadow=0;shape=link;width=5;" edge="1" parent="1">
          <mxGeometry relative="1" as="geometry">
            <mxPoint x="694.5" y="340" as="sourcePoint" />
            <mxPoint x="694.5" y="400" as="targetPoint" />
            <Array as="points">
              <mxPoint x="694.5" y="350" />
              <mxPoint x="694.5" y="350" />
            </Array>
          </mxGeometry>
        </mxCell>
        <mxCell id="eFKBSbeL_RVfUrZuhsc8-40" value="" style="endArrow=none;html=1;shadow=0;entryX=0.5;entryY=0;entryDx=0;entryDy=0;exitX=0.5;exitY=1;exitDx=0;exitDy=0;" edge="1" parent="1" source="eFKBSbeL_RVfUrZuhsc8-20" target="eFKBSbeL_RVfUrZuhsc8-32">
          <mxGeometry width="50" height="50" relative="1" as="geometry">
            <mxPoint x="680" y="130" as="sourcePoint" />
            <mxPoint x="489.9988235294117" y="195.17647058823525" as="targetPoint" />
            <Array as="points">
              <mxPoint x="695" y="150" />
            </Array>
          </mxGeometry>
        </mxCell>
        <mxCell id="eFKBSbeL_RVfUrZuhsc8-41" value="user_id" style="ellipse;whiteSpace=wrap;html=1;fillColor=#dae8fc;strokeColor=#6c8ebf;" vertex="1" parent="1">
          <mxGeometry x="180" y="80" width="100" height="70" as="geometry" />
        </mxCell>
        <mxCell id="eFKBSbeL_RVfUrZuhsc8-43" value="" style="endArrow=none;html=1;shadow=0;entryX=0;entryY=0.25;entryDx=0;entryDy=0;" edge="1" parent="1" source="eFKBSbeL_RVfUrZuhsc8-41" target="eFKBSbeL_RVfUrZuhsc8-1">
          <mxGeometry width="50" height="50" relative="1" as="geometry">
            <mxPoint x="260" y="160" as="sourcePoint" />
            <mxPoint x="310" y="110" as="targetPoint" />
            <Array as="points">
              <mxPoint x="290" y="140" />
            </Array>
          </mxGeometry>
        </mxCell>
        <mxCell id="eFKBSbeL_RVfUrZuhsc8-44" value="user_name" style="ellipse;whiteSpace=wrap;html=1;rounded=1;dashed=1;" vertex="1" parent="1">
          <mxGeometry x="-50" y="390" width="120" height="60" as="geometry" />
        </mxCell>
        <mxCell id="eFKBSbeL_RVfUrZuhsc8-46" value="ques_text&amp;nbsp;" style="ellipse;whiteSpace=wrap;html=1;rounded=1;" vertex="1" parent="1">
          <mxGeometry x="140" y="530" width="120" height="60" as="geometry" />
        </mxCell>
        <mxCell id="eFKBSbeL_RVfUrZuhsc8-48" value="ques_id" style="ellipse;whiteSpace=wrap;html=1;rounded=1;fillColor=#dae8fc;strokeColor=#6c8ebf;" vertex="1" parent="1">
          <mxGeometry x="290" y="480" width="120" height="60" as="geometry" />
        </mxCell>
        <mxCell id="eFKBSbeL_RVfUrZuhsc8-50" value="date &amp;amp; time" style="ellipse;whiteSpace=wrap;html=1;rounded=1;" vertex="1" parent="1">
          <mxGeometry x="-10" y="510" width="120" height="60" as="geometry" />
        </mxCell>
        <mxCell id="eFKBSbeL_RVfUrZuhsc8-52" value="" style="endArrow=classic;html=1;shadow=0;entryX=0.713;entryY=0.017;entryDx=0;entryDy=0;entryPerimeter=0;" edge="1" parent="1" target="eFKBSbeL_RVfUrZuhsc8-50">
          <mxGeometry width="50" height="50" relative="1" as="geometry">
            <mxPoint x="76" y="511" as="sourcePoint" />
            <mxPoint x="120" y="460" as="targetPoint" />
            <Array as="points">
              <mxPoint x="160" y="440" />
            </Array>
          </mxGeometry>
        </mxCell>
        <mxCell id="eFKBSbeL_RVfUrZuhsc8-53" value="" style="edgeStyle=orthogonalEdgeStyle;rounded=0;orthogonalLoop=1;jettySize=auto;html=1;shadow=0;" edge="1" source="eFKBSbeL_RVfUrZuhsc8-56" target="eFKBSbeL_RVfUrZuhsc8-57" parent="1">
          <mxGeometry relative="1" as="geometry">
            <Array as="points">
              <mxPoint x="640" y="480" />
            </Array>
          </mxGeometry>
        </mxCell>
        <mxCell id="eFKBSbeL_RVfUrZuhsc8-55" value="" style="edgeStyle=orthogonalEdgeStyle;rounded=0;orthogonalLoop=1;jettySize=auto;html=1;shadow=0;" edge="1" source="eFKBSbeL_RVfUrZuhsc8-56" target="eFKBSbeL_RVfUrZuhsc8-59" parent="1">
          <mxGeometry relative="1" as="geometry">
            <Array as="points">
              <mxPoint x="750" y="430" />
            </Array>
          </mxGeometry>
        </mxCell>
        <mxCell id="eFKBSbeL_RVfUrZuhsc8-56" value="Answer" style="rounded=1;whiteSpace=wrap;html=1;fillColor=#fff2cc;strokeColor=none;" vertex="1" parent="1">
          <mxGeometry x="640" y="400" width="127" height="60" as="geometry" />
        </mxCell>
        <mxCell id="eFKBSbeL_RVfUrZuhsc8-57" value="user_name" style="ellipse;whiteSpace=wrap;html=1;rounded=1;dashed=1;" vertex="1" parent="1">
          <mxGeometry x="500" y="450" width="120" height="60" as="geometry" />
        </mxCell>
        <mxCell id="eFKBSbeL_RVfUrZuhsc8-65" style="edgeStyle=orthogonalEdgeStyle;rounded=0;orthogonalLoop=1;jettySize=auto;html=1;entryX=0.75;entryY=1;entryDx=0;entryDy=0;shadow=0;" edge="1" parent="1" source="eFKBSbeL_RVfUrZuhsc8-58" target="eFKBSbeL_RVfUrZuhsc8-56">
          <mxGeometry relative="1" as="geometry" />
        </mxCell>
        <mxCell id="eFKBSbeL_RVfUrZuhsc8-58" value="ans_text&amp;nbsp;" style="ellipse;whiteSpace=wrap;html=1;rounded=1;" vertex="1" parent="1">
          <mxGeometry x="735" y="550" width="120" height="60" as="geometry" />
        </mxCell>
        <mxCell id="eFKBSbeL_RVfUrZuhsc8-59" value="ans_id" style="ellipse;whiteSpace=wrap;html=1;rounded=1;fillColor=#dae8fc;strokeColor=#6c8ebf;" vertex="1" parent="1">
          <mxGeometry x="800" y="330" width="120" height="60" as="geometry" />
        </mxCell>
        <mxCell id="eFKBSbeL_RVfUrZuhsc8-64" style="edgeStyle=orthogonalEdgeStyle;rounded=0;orthogonalLoop=1;jettySize=auto;html=1;entryX=0.362;entryY=1.063;entryDx=0;entryDy=0;entryPerimeter=0;shadow=0;" edge="1" parent="1" source="eFKBSbeL_RVfUrZuhsc8-60" target="eFKBSbeL_RVfUrZuhsc8-56">
          <mxGeometry relative="1" as="geometry" />
        </mxCell>
        <mxCell id="eFKBSbeL_RVfUrZuhsc8-60" value="date &amp;amp; time" style="ellipse;whiteSpace=wrap;html=1;rounded=1;" vertex="1" parent="1">
          <mxGeometry x="570" y="560" width="127" height="60" as="geometry" />
        </mxCell>
        <mxCell id="eFKBSbeL_RVfUrZuhsc8-69" value="first_name" style="ellipse;whiteSpace=wrap;html=1;" vertex="1" parent="1">
          <mxGeometry x="480" y="-90" width="70" height="40" as="geometry" />
        </mxCell>
        <mxCell id="eFKBSbeL_RVfUrZuhsc8-72" value="last_name" style="ellipse;whiteSpace=wrap;html=1;" vertex="1" parent="1">
          <mxGeometry x="330" y="-80" width="60" height="40" as="geometry" />
        </mxCell>
      </root>
    </mxGraphModel>
  </diagram>
</mxfile>
